# xmcd CD database file
#
# Track frame offsets:
#	150
#	79225
#	109390
#	126795
#	155407
#	198622
#	234867
#	266195
#
# Disc length: 3705 seconds
#
# Revision: 6
# Processed by: cddbd v1.5.2PL0 Copyright (c) Steve Scherf et al.
# Submitted via: CDex 1.70beta3
#
DISCID=6c0e7708
DTITLE=Jan Akkerman - 10.000 Clowns On A Rainy Day
DYEAR=1997
DGENRE=Blues
TTITLE0=On The Table
TTITLE1=Am I Losing You
TTITLE2=Wake Up
TTITLE3=Focus 3
TTITLE4=Weedstalker
TTITLE5=Akkerstones
TTITLE6=Pool House
TTITLE7=Quiet Storm
EXTD=YEAR: 1997
EXTT0=
EXTT1=
EXTT2=
EXTT3=
EXTT4=
EXTT5=
EXTT6=
EXTT7=
PLAYORDER=
